<svg width="437" height="105" viewBox="0 0 437 105" fill="none" xmlns="http://www.w3.org/2000/svg">
<g clip-path="url(#clip0_388_49)">
<path d="M260.9 86.96H273.25V82.86H260.9V77.05H274.24V72.75H256.01V97.84H274.48V93.54H260.9V86.97V86.96Z" fill="#231815"/>
<path d="M285.72 79.02C283.6 79.02 281.7 80.03 280.43 81.7V79.5H276.13V97.83H280.64V87.07C280.64 84.5 282.28 82.71 284.63 82.71C286.78 82.71 287.73 83.81 287.79 86.39V97.83H292.3V85.35C292.3 81.32 289.91 79.01 285.73 79.01L285.72 79.02Z" fill="#231815"/>
<path d="M307.42 81.39C306.34 79.9 304.59 79.02 302.4 79.02C296.93 79.02 294.07 83.64 294.07 88.2C294.07 94.23 297.16 97.83 302.33 97.83C304.36 97.83 306.21 96.82 307.42 95.21V97.12C307.42 99.97 306.02 101.35 303.16 101.35C301.37 101.35 299.65 101.06 299.2 98.98L299.15 98.74H294.67L294.7 99.06C295.05 103.33 299.18 104.86 302.92 104.86C308.81 104.86 311.93 102 311.93 96.6V79.5H307.42V81.39ZM302.95 94.14C299.73 94.14 298.59 91.14 298.59 88.58C298.59 85.74 299.74 82.71 302.95 82.71C307.09 82.71 307.42 86.97 307.42 88.27C307.42 91.11 306.24 94.14 302.95 94.14Z" fill="#231815"/>
<path d="M314.58 79.5V97.83H319.09V79.5H318.79H314.58Z" fill="#231815"/>
<path d="M314.58 72.74V77.05H319.09V72.74H318.79H314.58Z" fill="#231815"/>
<path d="M331.13 79.02C329.01 79.02 327.11 80.03 325.84 81.7V79.5H321.54V97.83H326.05V87.07C326.05 84.5 327.69 82.71 330.03 82.71C332.19 82.71 333.13 83.81 333.2 86.39V97.83H337.71V85.35C337.71 81.32 335.32 79.01 331.14 79.01L331.13 79.02Z" fill="#231815"/>
<path d="M348.21 79.02C343.07 79.02 339.34 83.09 339.34 88.68C339.34 94.27 342.86 98.31 348.32 98.31C352.53 98.31 355.79 95.85 356.64 92.04L356.72 91.68H352.43L352.36 91.88C351.7 93.75 350.42 94.63 348.32 94.63C345.17 94.63 343.99 92.28 343.89 89.98H356.85L356.88 89.72C356.93 89.27 356.96 88.82 356.96 88.38C356.96 85.92 356.12 83.6 354.58 81.85C352.97 80.03 350.71 79.03 348.21 79.03V79.02ZM343.91 86.81C344.14 84.39 345.85 82.71 348.21 82.71C350.57 82.71 352.06 84.72 352.3 86.81H343.91Z" fill="#231815"/>
<path d="M367.46 79.02C362.32 79.02 358.59 83.09 358.59 88.68C358.59 94.27 362.11 98.31 367.57 98.31C371.78 98.31 375.05 95.85 375.89 92.04L375.97 91.68H371.68L371.61 91.88C370.95 93.75 369.67 94.63 367.57 94.63C364.41 94.63 363.24 92.28 363.14 89.98H376.1L376.13 89.72C376.18 89.27 376.21 88.82 376.21 88.38C376.21 85.92 375.37 83.59 373.83 81.85C372.22 80.03 369.96 79.03 367.46 79.03V79.02ZM363.16 86.81C363.39 84.39 365.1 82.71 367.46 82.71C369.82 82.71 371.31 84.72 371.55 86.81H363.16Z" fill="#231815"/>
<path d="M388.63 79.22L387.68 79.18C385.6 79.18 383.66 80.62 382.73 82.2V79.66H378.46V97.99H382.97V89.26C382.97 85.75 384.73 83.49 387.47 83.49L388 83.54L388.64 83.64V83.29V79.23L388.63 79.22Z" fill="#231815"/>
<path d="M390.62 79.5V97.83H395.13V79.5H394.83H390.62Z" fill="#231815"/>
<path d="M390.62 72.74V77.05H395.13V72.74H394.83H390.62Z" fill="#231815"/>
<path d="M406.86 79.02C404.74 79.02 402.84 80.03 401.57 81.7V79.51H397.27V97.84H401.78V87.08C401.78 84.51 403.42 82.72 405.77 82.72C407.92 82.72 408.87 83.82 408.93 86.4V97.84H413.44V85.36C413.44 81.33 411.04 79.02 406.86 79.02Z" fill="#231815"/>
<path d="M428.62 81.39C427.54 79.9 425.79 79.02 423.6 79.02C418.13 79.02 415.27 83.64 415.27 88.2C415.27 94.23 418.36 97.83 423.53 97.83C425.56 97.83 427.42 96.82 428.62 95.21V97.12C428.62 99.97 427.22 101.35 424.36 101.35C422.57 101.35 420.85 101.06 420.4 98.98L420.35 98.74H415.87L415.9 99.06C416.25 103.33 420.38 104.86 424.12 104.86C430.01 104.86 433.13 102 433.13 96.6V79.5H428.62V81.39ZM424.15 94.14C420.93 94.14 419.79 91.14 419.79 88.58C419.79 85.74 420.94 82.71 424.15 82.71C428.29 82.71 428.62 86.97 428.62 88.27C428.62 91.11 427.44 94.14 424.15 94.14Z" fill="#231815"/>
<path d="M166.55 0H122.38V9.31H139.15V54.27H149.72V9.31H166.56V0H166.55Z" fill="#231815"/>
<path d="M234.73 14.62H222.46C222.46 14.62 210.01 27.25 208.1 29.19V0H198.35V54.27H208.1V40.17C208.42 39.86 211.51 36.86 212.37 36.02C213.17 37.28 223.86 54.27 223.86 54.27H235.74C235.74 54.27 219.85 30.33 219.27 29.46C220.01 28.74 234.73 14.62 234.73 14.62Z" fill="#231815"/>
<path d="M296.68 30.36L293.98 29.78C289.01 28.75 284.72 27.86 284.72 24.83C284.72 21.8 289.56 21.55 291.04 21.55C295.28 21.55 297.62 23.05 298.19 26.14L298.29 26.67H308.39L308.3 25.95C307.34 18.09 301.27 13.58 291.63 13.58C283.94 13.58 274.96 16.63 274.96 25.21C274.96 33.33 281.13 35.77 287.79 37.2L290.49 37.78C295.4 38.8 299.65 39.68 299.81 42.97C299.86 43.95 299.59 44.74 298.98 45.38C297.37 47.08 293.87 47.34 291.93 47.34C288.52 47.34 284.36 46.28 283.9 41.25L283.85 40.66H274.14V41.32C274.29 50.08 280.89 55.31 291.79 55.31C299.99 55.31 309.57 51.88 309.57 42.2C309.57 34.4 303.37 31.9 296.68 30.37V30.36Z" fill="#231815"/>
<path d="M381.86 18.71C379.52 15.49 375.73 13.58 371.01 13.58C359.19 13.58 353 23.57 353 33.44C353 46.48 359.68 54.27 370.86 54.27C375.25 54.27 379.26 52.08 381.86 48.6V52.72C381.86 58.88 378.84 61.87 372.64 61.87C368.77 61.87 365.05 61.25 364.08 56.74L363.97 56.23H354.28L354.34 56.93C355.1 66.17 364.03 69.47 372.12 69.47C384.87 69.47 391.61 63.29 391.61 51.61V14.62H381.86V18.71ZM372.2 46.3C365.23 46.3 362.76 39.82 362.76 34.27C362.76 28.13 365.24 21.56 372.2 21.56C381.16 21.56 381.86 30.77 381.86 33.59C381.86 39.73 379.32 46.3 372.2 46.3Z" fill="#231815"/>
<path d="M416.34 13.58C404.18 13.58 396.33 21.76 396.33 34.41C396.33 47.06 404.19 55.31 416.34 55.31C428.49 55.31 436.35 47.11 436.35 34.41C436.35 21.71 428.5 13.58 416.34 13.58ZM416.34 47.34C409.26 47.34 406.09 40.84 406.09 34.41C406.09 27.98 409.26 21.56 416.34 21.56C423.42 21.56 426.59 28.02 426.59 34.41C426.59 40.8 423.42 47.34 416.34 47.34Z" fill="#231815"/>
<path d="M192.57 46.94L192.52 25.36C192.52 16.67 183.9 13.58 176.52 13.58C165.38 13.58 158.96 18.33 158.44 26.95L158.4 27.64H168.14L168.19 27.05C168.62 22.27 173.27 21.56 176 21.56C179.33 21.56 183.29 22.35 183.29 26.1C183.29 29.3 180.82 29.75 176.09 30.34L172.32 30.88C164.94 31.72 157.02 33.47 157.02 43.46C157.02 51.64 163.94 55.31 170.8 55.31C174.73 55.31 179.97 54.13 183.64 51.11C183.86 52.25 184.3 54.55 184.3 54.55L184.81 54.46H194.29V52.65L193.86 52.5C193.09 52.23 192.58 51.7 192.58 46.95L192.57 46.94ZM182.76 40.71C182.76 45.57 177.47 47.34 173.91 47.34C171.44 47.34 166.77 46.45 166.77 43.09C166.77 39.73 168.61 38.08 173.12 37.35C173.13 37.35 176.34 36.9 176.34 36.9C178.73 36.62 180.91 36.23 182.75 35.35V40.71H182.76Z" fill="#231815"/>
<path d="M270.84 46.94L270.79 25.36C270.79 16.67 262.17 13.58 254.79 13.58C243.65 13.58 237.22 18.33 236.71 26.95L236.67 27.64H246.41L246.46 27.05C246.89 22.27 251.54 21.56 254.27 21.56C257.59 21.56 261.56 22.35 261.56 26.1C261.56 29.3 259.09 29.75 254.37 30.34L250.6 30.88C243.22 31.72 235.3 33.47 235.3 43.46C235.3 51.64 242.22 55.31 249.08 55.31C253.01 55.31 258.25 54.13 261.92 51.11C262.14 52.25 262.58 54.55 262.58 54.55L263.09 54.46H272.57V52.65L272.14 52.5C271.37 52.23 270.86 51.7 270.86 46.95L270.84 46.94ZM261.03 40.71C261.03 45.57 255.74 47.34 252.18 47.34C249.71 47.34 245.04 46.45 245.04 43.09C245.04 39.73 246.88 38.08 251.39 37.35C251.4 37.35 254.61 36.9 254.61 36.9C257 36.62 259.18 36.23 261.03 35.35V40.71Z" fill="#231815"/>
<path d="M348.94 46.94L348.89 25.36C348.89 16.67 340.27 13.58 332.88 13.58C321.74 13.58 315.32 18.33 314.8 26.95L314.76 27.64H324.5L324.55 27.05C324.98 22.27 329.62 21.56 332.36 21.56C335.68 21.56 339.65 22.35 339.65 26.1C339.65 29.3 337.18 29.75 332.45 30.34L328.68 30.88C321.31 31.72 313.39 33.47 313.39 43.46C313.39 51.64 320.31 55.31 327.17 55.31C331.1 55.31 336.33 54.13 340.01 51.11C340.23 52.25 340.67 54.55 340.67 54.55L341.18 54.46H350.66V52.65L350.23 52.5C349.46 52.23 348.95 51.7 348.95 46.95L348.94 46.94ZM339.14 40.71C339.14 45.57 333.85 47.34 330.29 47.34C327.82 47.34 323.15 46.45 323.15 43.09C323.15 39.73 324.99 38.08 329.5 37.35C329.51 37.35 332.72 36.9 332.72 36.9C335.1 36.62 337.29 36.23 339.14 35.35V40.71Z" fill="#231815"/>
<path d="M123.38 72.74V77.04H131.13V97.83H136.02V77.04H143.8V72.74H123.38Z" fill="#231815"/>
<path d="M155.05 79.88C153.02 79.88 151.13 80.8 149.96 82.24V72.74H145.45V97.83H149.96V87.93C149.96 85.36 151.6 83.56 153.95 83.56C156.1 83.56 157.05 84.66 157.11 87.25V97.83H161.62V86.22C161.62 82.19 159.22 79.88 155.05 79.88Z" fill="#231815"/>
<path d="M172.19 79.02C167.05 79.02 163.31 83.09 163.31 88.68C163.31 94.27 166.83 98.31 172.29 98.31C176.5 98.31 179.76 95.85 180.61 92.04L180.69 91.68H176.4L176.33 91.88C175.67 93.75 174.39 94.63 172.29 94.63C169.14 94.63 167.96 92.28 167.86 89.98H180.82L180.85 89.72C180.91 89.27 180.93 88.82 180.93 88.38C180.93 85.92 180.09 83.59 178.55 81.85C176.94 80.03 174.68 79.03 172.18 79.03L172.19 79.02ZM167.89 86.81C168.13 84.39 169.83 82.71 172.19 82.71C174.55 82.71 176.04 84.72 176.28 86.81H167.89Z" fill="#231815"/>
<path d="M193.68 79.1L192.4 79.02C190.32 79.02 188.38 80.46 187.45 82.04V79.5H183.18V97.83H187.69V89.09C187.69 85.59 189.46 83.32 192.19 83.32L193.45 83.44L194.17 83.54V79.16L193.67 79.1H193.68Z" fill="#231815"/>
<path d="M215.51 79.02C213.21 79.02 211.45 79.92 210 81.77C209.13 80.06 207.32 79.02 204.98 79.02C202.18 79.02 200.73 80.21 199.73 81.52V79.5H195.43V97.83H199.94V87C199.94 84.05 201.8 82.7 203.52 82.7C205.55 82.7 206.34 83.66 206.34 86.14V97.83H210.85V87.14C210.85 84.16 211.99 82.71 214.32 82.71C216.95 82.71 217.24 84.14 217.24 87.18V97.84H221.75V85.3C221.75 81.08 219.71 79.03 215.52 79.03L215.51 79.02Z" fill="#231815"/>
<path d="M242.61 72.74V97.83H247.12V72.74H246.82H242.61Z" fill="#231815"/>
<path d="M240.07 94.44L240.04 84.46C240.04 80.44 236.05 79.01 232.64 79.01C227.49 79.01 224.52 81.21 224.28 85.19L224.26 85.51H228.76L228.78 85.24C228.98 83.03 231.13 82.7 232.39 82.7C233.93 82.7 235.76 83.06 235.76 84.8C235.76 86.28 234.62 86.49 232.43 86.76L230.69 87.01C227.28 87.4 223.62 88.21 223.62 92.82C223.62 96.6 226.82 98.3 229.99 98.3C231.81 98.3 234.23 97.75 235.92 96.36C236.02 96.89 236.22 97.95 236.22 97.95L236.45 97.91H240.83V97.07L240.63 97C240.27 96.87 240.04 96.63 240.04 94.44H240.07ZM235.54 91.56C235.54 93.81 233.1 94.62 231.45 94.62C230.31 94.62 228.15 94.21 228.15 92.65C228.15 91.09 229 90.34 231.09 90L232.58 89.79C233.69 89.66 234.69 89.48 235.55 89.07V91.55L235.54 91.56Z" fill="#231815"/>
<path d="M65.9899 39.85C63.9599 42.67 62.9599 45.69 62.9599 51.79C62.9599 57.89 62.9099 97.84 62.9099 97.84H71.9199C71.9199 97.84 71.8099 67.92 71.9199 57.4C72.0599 44.43 72.2099 42.45 75.4299 38.95C77.9299 36.24 81.2099 35.18 89.3699 35.18H108.15V32.74H81.2799C71.4499 32.74 68.2799 36.65 65.9799 39.86L65.9899 39.85Z" fill="#008CD6"/>
<path d="M0 8.94H23.03C31.72 8.94 36.4 7.05 42.68 5.08C47.84 3.46 56.86 2.43 67.65 2.43H108.15V0H0V8.94Z" fill="#004098"/>
<path d="M42.7 9.52995C36.92 11.52 30.62 12.59 25.21 12.59H0V21.7H22.12C30.37 21.7 36.95 18.31 44.49 14.23C50.47 10.99 58.11 8.88995 71.75 8.88995H108.16V6.44995H65.02C56.21 6.44995 49.27 7.27995 42.7 9.53995V9.52995Z" fill="#004098"/>
<path d="M41.93 20.21C36.68 23.49 29.84 25.79 20.21 25.79H0V34.91C0 34.91 2.76 34.91 17.12 34.91C28.8 34.91 37.57 31.29 44.49 25.63C53.57 18.21 61.44 15.32 75.99 15.32H108.16V12.88H67.21C58.27 12.88 49.23 15.67 41.94 20.21H41.93Z" fill="#004098"/>
<path d="M43.39 34.06C37.29 42.73 36.76 52.07 36.76 55.78V97.83H45.75V55.31C45.75 44.5 48.39 36.41 54.8 30.55C61 24.88 68.41 21.77 81.8 21.77H108.16V19.34H75.2C56.93 19.34 47.93 27.61 43.39 34.06Z" fill="#008CD6"/>
<path d="M79.0801 25.9C69.6301 25.86 62.6801 28 57.5701 33.43C53.4201 37.83 49.8501 42.98 49.8501 53.91V97.83H58.8401V54.51C58.8401 48.18 59.0201 43.2 62.4201 37.73C66.2901 31.49 73.6101 28.33 85.5601 28.33H108.16V25.89C108.16 25.89 84.7101 25.92 79.0801 25.89V25.9Z" fill="#008CD6"/>
</g>
<defs>
<clipPath id="clip0_388_49">
<rect width="436.35" height="104.86" fill="white"/>
</clipPath>
</defs>
</svg>
